<?xml version="1.0" standalone="no"?>
<!DOCTYPE svg PUBLIC "-//W3C//DTD SVG 20010904//EN"
 "http://www.w3.org/TR/2001/REC-SVG-20010904/DTD/svg10.dtd">
<svg version="1.0" xmlns="http://www.w3.org/2000/svg"
 width="2100.000000pt" height="2100.000000pt" viewBox="0 0 2100.000000 2100.000000"
 preserveAspectRatio="xMidYMid meet">

<g transform="translate(0.000000,2100.000000) scale(0.100000,-0.100000)"
fill="#000000" stroke="none">
<path d="M11445 19859 c-239 -8 -377 -19 -1005 -80 -173 -16 -396 -38 -495
-49 -99 -10 -250 -26 -335 -35 -801 -84 -1336 -170 -1755 -281 -49 -13 -101
-24 -115 -24 -14 0 -52 -9 -85 -19 -60 -18 -60 -18 -33 -31 22 -11 35 -10 75
3 123 40 539 136 703 162 19 3 60 10 90 15 437 76 1143 160 2180 261 476 46
843 69 1119 69 107 0 192 2 190 4 -9 9 -343 12 -534 5z"/>
<path d="M12640 19760 c122 -39 352 -132 455 -183 412 -205 1136 -795 1500
-1222 33 -38 62 -72 66 -75 29 -27 109 -135 109 -148 0 -9 -11 -35 -23 -57
-51 -86 -262 -434 -302 -495 -175 -269 -495 -837 -730 -1295 -65 -126 -145
-282 -178 -345 -32 -63 -99 -194 -148 -291 -49 -97 -94 -181 -101 -186 -12 -9
-94 -17 -468 -44 -80 -5 -190 -14 -245 -19 -55 -5 -156 -14 -225 -20 -329 -26
-982 -91 -1320 -130 -91 -11 -208 -24 -260 -30 -194 -22 -767 -94 -1110 -140
-156 -21 -673 -97 -850 -125 -52 -8 -104 -15 -115 -15 -12 0 -70 49 -146 123
-69 67 -190 183 -270 257 -79 74 -191 180 -249 235 -425 406 -666 612 -1070
919 -74 56 -157 117 -185 135 -27 19 -95 64 -150 101 -113 77 -398 237 -586
329 -69 34 -136 71 -148 82 -20 19 -20 21 -5 57 9 20 25 62 36 92 29 78 217
460 274 555 233 392 384 604 593 835 133 147 305 316 426 419 61 51 119 101
130 111 31 26 77 81 72 86 -2 3 -37 -2 -78 -11 -41 -8 -117 -24 -170 -35 -94
-19 -208 -60 -846 -303 -368 -141 -619 -258 -949 -442 -224 -126 -500 -308
-704 -465 -47 -36 -94 -72 -105 -81 -270 -223 -403 -344 -638 -577 -363 -361
-665 -711 -912 -1057 -43 -60 -95 -130 -115 -155 -151 -185 -195 -324 -207
-645 -8 -235 22 -528 86 -825 26 -121 26 -139 -3 -224 -94 -275 -226 -781
-280 -1076 -14 -74 -41 -218 -61 -320 -70 -374 -127 -952 -141 -1454 l-7 -239
-82 -171 c-318 -660 -496 -1298 -519 -1860 -5 -125 -5 -131 29 -235 18 -58 59
-194 90 -301 159 -547 251 -801 477 -1320 81 -184 298 -623 385 -775 44 -77
96 -171 117 -208 58 -104 167 -278 350 -556 92 -139 187 -285 210 -325 37 -63
52 -78 138 -136 330 -223 902 -438 1464 -550 121 -25 116 -22 244 -144 479
-456 1240 -1017 1825 -1343 430 -240 755 -378 1215 -517 80 -25 183 -59 230
-76 47 -18 108 -39 135 -47 45 -13 69 -34 230 -198 273 -277 476 -438 725
-573 120 -64 161 -73 370 -79 181 -5 420 7 800 42 85 8 191 17 235 20 112 9
442 51 620 80 83 13 188 29 235 35 47 6 195 29 330 50 135 22 299 46 365 55
66 8 154 21 195 29 41 8 120 22 175 31 196 32 382 67 485 91 58 13 195 44 305
69 269 60 433 104 622 165 155 51 398 160 438 197 11 10 32 26 47 36 46 29
198 165 298 266 141 143 231 246 344 396 38 50 74 95 80 100 7 6 15 17 19 25
15 31 53 90 82 125 27 33 134 115 150 115 3 0 11 5 18 10 7 6 111 76 232 156
241 161 259 174 390 284 141 118 179 154 350 325 162 162 297 308 370 400 22
28 44 55 50 61 36 38 191 232 278 348 106 141 100 134 294 416 150 220 368
592 549 938 7 13 23 31 36 40 110 75 296 259 390 384 64 85 103 172 207 470
22 62 49 138 60 168 56 154 145 453 176 590 45 199 102 443 126 545 23 98 90
511 118 730 62 482 98 992 94 1330 -5 396 -39 907 -78 1156 -8 52 -20 130 -25
174 -20 151 -65 330 -105 420 -8 17 -29 71 -48 121 -46 119 -135 311 -202 434
-43 78 -74 162 -150 402 -201 628 -338 972 -629 1571 -144 298 -266 516 -459
825 -57 90 -105 180 -118 220 -133 405 -335 761 -546 962 -37 36 -147 144
-244 240 -268 266 -399 387 -609 561 -198 164 -526 394 -760 534 -91 55 -187
113 -215 130 -144 91 -613 313 -859 407 -133 51 -227 85 -577 209 -290 102
-765 237 -1089 308 -200 43 -244 47 -130 11z m2560 -1842 c231 -84 339 -132
625 -273 267 -132 438 -230 711 -410 227 -149 515 -364 684 -511 14 -12 63
-54 110 -94 47 -40 136 -120 198 -178 99 -92 125 -124 207 -253 184 -286 462
-800 605 -1119 18 -41 46 -102 61 -135 162 -358 328 -811 465 -1270 l56 -190
-6 -230 c-14 -512 -79 -1009 -191 -1457 -45 -177 -134 -476 -186 -620 -59
-164 -189 -481 -204 -497 -11 -11 -21 -11 -61 3 -93 30 -370 98 -575 141 -113
24 -220 50 -236 58 -16 9 -72 23 -124 32 -52 9 -139 25 -194 36 -186 37 -1150
213 -1455 265 -80 14 -151 31 -157 37 -11 10 -157 332 -318 697 -18 41 -56
123 -84 183 -28 59 -51 109 -51 111 0 3 -34 75 -75 161 -41 87 -75 158 -75
160 0 1 -41 87 -91 191 -50 104 -120 250 -156 324 -124 260 -534 1073 -641
1273 -16 28 -55 102 -87 162 -128 243 -256 478 -379 700 -31 55 -56 109 -56
119 0 16 219 454 382 766 25 47 91 175 148 285 219 424 445 830 645 1158 47
77 85 143 85 148 0 5 42 75 92 155 l93 145 35 -6 c19 -4 109 -34 200 -67z
m-9339 -1031 c314 -159 430 -224 563 -314 356 -241 708 -522 1081 -862 148
-136 212 -195 405 -375 183 -171 580 -566 580 -578 0 -11 -13 -76 -76 -378
-19 -88 -37 -182 -54 -265 -6 -33 -35 -181 -65 -330 -104 -523 -270 -1373
-350 -1800 -20 -104 -42 -221 -50 -260 -24 -120 -105 -545 -126 -660 -11 -60
-24 -128 -29 -150 -5 -22 -34 -173 -65 -335 -57 -303 -70 -369 -77 -375 -2 -2
-35 -17 -73 -33 -39 -16 -279 -119 -535 -229 -546 -235 -826 -353 -834 -353
-4 0 -25 -8 -49 -19 -23 -10 -67 -29 -97 -41 -30 -12 -59 -26 -65 -30 -35 -27
-245 -128 -385 -185 -413 -168 -808 -342 -1089 -479 -63 -30 -120 -52 -127
-48 -21 12 -403 392 -505 503 -305 331 -520 595 -811 999 -179 249 -445 688
-602 996 l-46 91 0 104 c0 57 5 169 10 249 6 80 13 183 16 230 18 281 59 673
95 905 43 288 52 339 99 576 72 361 214 918 278 1086 42 110 475 602 851 967
69 67 165 162 215 211 150 149 213 205 401 356 302 243 507 393 730 536 238
152 603 362 631 363 6 0 76 -33 155 -73z m9889 -5942 c113 -20 432 -73 710
-120 636 -107 732 -125 905 -169 77 -20 208 -50 290 -67 283 -58 630 -149 651
-171 14 -15 53 -253 88 -533 107 -863 97 -1694 -30 -2450 -38 -228 -102 -505
-128 -555 -122 -234 -223 -415 -325 -580 -9 -14 -24 -40 -33 -58 -19 -34 -111
-179 -125 -197 -5 -5 -26 -37 -47 -70 -120 -183 -467 -651 -517 -695 -3 -3
-36 -43 -74 -90 -38 -47 -74 -90 -80 -96 -5 -6 -39 -44 -75 -85 -69 -79 -329
-341 -421 -424 -31 -27 -80 -73 -111 -101 -30 -27 -61 -48 -68 -46 -7 3 -10 0
-7 -5 4 -6 -15 -29 -42 -51 -38 -32 -55 -40 -75 -36 -24 4 -26 3 -17 -15 9
-16 6 -23 -16 -41 -17 -13 -35 -19 -49 -16 -21 6 -60 -24 -48 -36 3 -3 1 -9
-5 -13 -6 -3 -11 -2 -11 3 0 6 -15 -4 -34 -22 -37 -35 -130 -96 -146 -96 -5 0
-10 -3 -10 -8 0 -4 -17 -16 -37 -27 -21 -11 -42 -23 -48 -28 -18 -13 -189
-113 -225 -131 -56 -27 -234 -7 -215 24 6 9 -25 23 -33 15 -3 -3 -1 -5 4 -5 5
0 10 -9 11 -20 2 -18 -2 -19 -40 -14 -53 8 -56 11 -26 24 19 8 13 9 -26 3 -97
-13 -175 -1 -175 27 0 10 5 22 11 26 8 4 7 9 -2 15 -21 13 -39 11 -39 -6 0 -8
-7 -15 -15 -15 -8 0 -14 3 -13 8 1 4 -2 16 -8 27 -9 18 -10 30 -5 78 1 11 9
17 26 17 16 0 25 6 25 16 0 12 -6 15 -21 11 -14 -4 -22 1 -28 16 l-8 21 -12
-22 c-7 -12 -16 -20 -22 -17 -13 9 -11 35 2 35 7 0 19 8 28 18 33 38 68 54 90
42 12 -6 21 -17 21 -25 0 -8 8 -15 18 -15 9 0 27 -3 40 -6 16 -5 22 -2 22 9 0
9 8 21 18 27 16 10 16 10 0 20 -24 15 -23 28 5 51 l22 19 -25 21 -25 22 53 -5
c29 -3 55 -1 58 3 3 5 -1 6 -9 3 -8 -3 -18 0 -22 6 -3 6 -1 9 7 8 7 -2 14 8
16 22 2 14 9 28 16 32 8 6 8 8 -1 8 -18 0 -16 39 2 47 9 3 23 -1 33 -9 9 -8
25 -18 34 -21 24 -8 78 12 78 29 0 8 9 14 20 14 11 0 20 -7 20 -15 0 -19 7
-19 26 0 14 13 14 15 0 15 -9 0 -16 5 -16 10 0 6 -13 10 -30 10 -23 0 -31 -5
-36 -24 -5 -22 -8 -23 -25 -13 -15 9 -23 9 -38 0 -16 -10 -20 -8 -31 13 -15
27 -44 31 -66 9 -18 -17 -34 -20 -34 -5 0 6 7 10 15 10 8 0 15 5 15 10 0 6 18
10 40 10 29 0 40 -4 40 -15 0 -13 3 -13 20 -3 16 10 24 10 40 0 19 -12 20 -10
20 52 0 55 3 67 25 87 13 13 25 27 25 32 0 15 -26 6 -38 -13 -9 -15 -23 -20
-52 -20 -40 0 -40 0 -40 -40 l0 -40 -40 0 c-49 0 -55 26 -10 41 17 6 34 23 42
40 8 19 20 29 34 29 12 0 24 7 28 15 3 8 12 15 21 15 23 0 18 17 -6 23 -14 4
-20 11 -16 20 3 8 -6 31 -20 52 -18 27 -22 40 -14 48 15 15 14 27 -4 27 -11 0
-15 -11 -15 -39 0 -25 5 -41 15 -45 21 -8 19 -36 -2 -36 -17 -1 -17 -1 0 -11
25 -15 21 -48 -8 -61 -14 -6 -25 -14 -25 -18 0 -4 -11 -12 -25 -18 -14 -6 -25
-18 -25 -27 0 -8 -5 -14 -11 -12 -7 1 -16 -13 -21 -30 -11 -40 -27 -43 -34 -5
-7 34 -23 56 -49 66 l-20 8 20 8 c11 4 23 6 27 4 4 -3 9 0 12 5 4 6 -24 9 -69
9 -63 -1 -78 2 -90 18 -20 27 -18 34 9 34 13 0 29 7 36 15 13 16 40 21 40 7 0
-4 -5 -13 -11 -19 -8 -8 -6 -14 8 -21 16 -9 24 -5 44 19 13 16 28 29 33 29 4
0 3 -7 -4 -14 -6 -8 -10 -24 -8 -36 3 -20 4 -20 41 5 38 26 47 21 25 -15 -10
-15 -10 -22 0 -32 9 -9 12 -8 12 6 0 10 15 32 33 49 27 26 29 32 15 35 -24 5
-23 28 2 59 12 16 20 41 20 64 0 32 -3 39 -20 39 -17 0 -20 -7 -20 -50 0 -36
-4 -52 -15 -56 -8 -4 -15 -17 -15 -30 0 -19 -5 -24 -25 -24 -22 0 -25 4 -25
40 0 29 -4 40 -15 40 -9 0 -15 -9 -15 -25 0 -22 -4 -25 -40 -25 l-40 0 0 65
c0 36 4 65 8 65 11 0 72 88 72 104 0 8 10 17 23 21 18 6 19 8 5 12 -10 2 -27
-5 -40 -16 -12 -12 -32 -21 -45 -21 -13 0 -23 -4 -23 -10 0 -5 5 -10 11 -10 5
0 7 -5 3 -11 -5 -8 -9 -7 -14 1 -6 9 -24 11 -62 8 -29 -3 -45 -3 -35 -1 9 2
17 11 17 20 0 12 -3 13 -14 4 -11 -9 -15 -5 -20 19 -3 17 -13 33 -21 36 -23 9
-28 -1 -13 -25 10 -16 10 -23 0 -33 -9 -9 -12 -6 -12 15 0 25 -3 27 -40 27
-39 0 -40 1 -40 35 0 34 1 35 40 35 22 0 40 5 40 10 0 6 18 10 40 10 34 0 40
-3 40 -21 0 -21 -14 -22 -64 -3 -10 4 -16 1 -16 -9 0 -8 13 -17 30 -20 21 -5
30 -12 30 -27 0 -17 6 -20 50 -20 28 0 50 4 50 9 0 5 8 12 18 14 10 3 6 5 -10
6 -30 1 -36 18 -18 52 13 23 5 40 -15 33 -8 -4 -13 -10 -10 -14 7 -11 -15 -70
-26 -70 -5 0 -9 24 -9 54 0 51 -1 53 -25 48 -14 -2 -25 0 -25 6 0 5 -16 13
-35 16 -34 7 -51 36 -20 36 8 0 15 4 15 9 0 5 -9 7 -20 4 -11 -3 -20 0 -20 6
0 16 -17 14 -23 -3 -8 -19 44 -75 79 -86 26 -7 24 -8 -19 -9 -31 -1 -54 5 -63
14 -9 8 -34 16 -57 17 l-42 1 45 7 45 7 -41 1 c-28 2 -50 -5 -67 -18 -14 -11
-31 -20 -39 -20 -7 0 -4 -6 7 -12 29 -16 29 -16 16 -32 -12 -14 -8 -36 7 -36
4 0 13 9 20 20 10 17 10 23 -3 36 -19 20 -19 34 0 34 8 0 15 -4 15 -9 0 -5 12
-12 26 -15 24 -6 26 -10 22 -49 -3 -28 0 -47 8 -55 24 -22 17 -52 -11 -52 -14
0 -25 6 -25 13 0 22 -24 67 -36 67 -7 0 -14 -6 -17 -14 -10 -24 -54 -48 -77
-41 -26 8 -26 22 3 31 23 7 37 22 37 39 0 6 -4 4 -9 -4 -7 -11 -16 -6 -44 22
-20 19 -33 38 -30 41 4 3 21 6 40 6 26 0 33 4 33 19 0 11 6 21 12 23 23 8 -18
38 -51 38 -27 0 -31 4 -32 28 -1 16 -3 20 -6 10 -3 -14 -15 -18 -50 -18 -42 0
-45 -2 -39 -22 3 -13 6 -29 6 -35 0 -8 15 -13 40 -13 29 0 40 -4 40 -15 0 -8
-8 -15 -18 -15 -14 0 -17 -7 -14 -40 3 -25 0 -40 -7 -40 -6 0 -11 17 -11 40 0
27 -4 40 -13 40 -8 0 -19 11 -25 25 -13 28 -32 34 -32 10 0 -19 -19 -20 -26
-1 -3 8 -15 11 -30 8 -29 -5 -27 -27 3 -26 26 0 43 -19 32 -37 -7 -11 -9 -11
-9 4 0 10 -8 18 -20 18 -11 1 -24 3 -30 4 -5 1 -17 3 -25 4 -21 2 -19 41 3 42
13 0 14 2 2 6 -8 3 -23 14 -34 25 -22 20 -32 22 -41 8 -3 -5 1 -10 9 -10 12 0
16 -10 16 -40 0 -36 -2 -40 -25 -40 -16 0 -25 6 -25 15 0 11 -11 15 -40 15
-34 0 -40 3 -40 20 0 24 -66 94 -80 85 -5 -3 -7 -19 -3 -35 3 -20 1 -30 -6
-30 -7 0 -9 5 -6 10 10 17 -25 24 -51 10 -13 -8 -27 -10 -31 -7 -3 4 1 7 10 7
12 0 17 9 17 29 0 24 3 28 24 24 13 -3 27 0 31 7 5 8 -11 10 -64 4 -69 -6 -72
-6 -92 20 -11 14 -27 26 -35 26 -8 0 -14 6 -14 14 0 13 -29 31 -37 23 -2 -2
12 -20 31 -40 l35 -37 -32 -1 c-18 -1 -45 -2 -60 -3 -16 -2 -31 3 -34 10 -7
19 -32 6 -26 -14 2 -9 -3 -26 -12 -37 -15 -19 -15 -19 -26 -1 -9 15 -13 16
-21 5 -8 -11 -8 -10 -4 4 9 27 -4 67 -21 67 -11 0 -14 -7 -10 -21 3 -12 0 -22
-9 -26 -19 -7 -18 -33 4 -49 15 -12 13 -13 -16 -11 -21 1 -34 8 -38 20 -3 9
-10 17 -15 17 -5 0 -9 9 -9 20 0 11 -5 20 -10 20 -6 0 -8 -15 -4 -40 4 -25 3
-40 -4 -40 -6 0 -12 6 -14 12 -3 8 -20 11 -46 9 -39 -2 -42 -1 -42 23 0 24 4
26 43 27 37 0 39 1 18 10 -13 5 -33 6 -45 2 -12 -3 -34 -5 -50 -4 -18 2 -26
-1 -22 -8 4 -6 13 -11 19 -11 7 0 18 -13 24 -29 8 -23 18 -30 44 -34 19 -2 6
-4 -27 -3 -34 1 -60 4 -58 8 3 4 -3 25 -13 46 l-17 40 -33 -40 c-18 -22 -33
-42 -33 -44 0 -2 14 -11 31 -20 26 -13 33 -14 40 -2 6 10 9 8 9 -7 0 -15 -11
-25 -37 -35 -21 -8 -41 -16 -45 -18 -5 -2 -8 24 -8 59 0 47 4 65 18 75 15 12
15 15 2 24 -12 7 -16 5 -18 -11 -3 -17 -10 -20 -45 -18 -23 1 -50 -2 -61 -6
-11 -5 -27 -3 -39 4 -17 11 -19 11 -14 -3 8 -19 -1 -46 -15 -46 -6 0 -19 -11
-30 -25 -22 -28 -38 -32 -38 -10 0 11 -11 15 -40 15 -22 0 -40 5 -40 10 0 6
-16 10 -35 10 -34 0 -35 1 -35 38 0 42 -13 71 -24 53 -4 -6 -2 -11 3 -11 13 0
15 -37 2 -45 -5 -3 -12 -1 -16 5 -3 5 -16 10 -28 10 -12 0 -31 7 -41 15 -19
14 -19 15 8 15 15 0 25 4 21 10 -3 6 -26 10 -50 10 -54 0 -66 -21 -30 -54 22
-20 23 -25 11 -36 -9 -6 -20 -9 -25 -5 -7 3 -8 0 -5 -9 5 -12 0 -16 -20 -16
-14 0 -26 5 -26 10 0 16 -60 12 -66 -5 -7 -18 -30 -20 -41 -2 -15 22 -42 39
-54 32 -7 -5 1 -13 20 -22 33 -16 41 -47 16 -57 -9 -3 -15 -18 -15 -36 0 -16
-4 -30 -10 -30 -5 0 -10 11 -10 25 0 23 -4 25 -46 25 -41 0 -45 2 -33 16 8 10
22 14 41 10 33 -7 48 12 23 30 -12 9 -24 10 -42 3 -31 -11 -36 -11 -28 1 3 5
-3 18 -14 29 -21 21 -107 32 -119 16 -12 -17 -32 -16 -32 1 0 8 4 13 9 10 12
-8 23 24 13 38 -31 41 -54 184 -34 209 5 7 13 23 17 36 6 19 4 23 -9 18 -8 -3
-18 -2 -20 2 -3 4 -12 111 -21 237 -32 469 -88 1172 -135 1684 -11 118 -20
222 -20 232 0 16 20 36 150 154 36 32 113 102 170 154 57 52 127 115 154 140
28 25 55 50 62 55 6 6 67 62 135 126 68 63 162 151 209 194 155 143 384 358
485 455 55 53 159 152 230 220 268 256 1191 1178 1516 1515 70 72 151 156 182
187 48 50 60 57 84 53 15 -3 120 -21 233 -40z m-8004 -994 c7 -7 210 -121 509
-286 28 -15 79 -45 115 -65 36 -21 92 -52 125 -70 33 -18 103 -56 155 -85 224
-125 370 -205 435 -240 39 -21 75 -41 80 -45 10 -7 292 -162 405 -222 30 -16
59 -33 65 -37 5 -5 55 -32 110 -61 55 -29 114 -60 130 -70 17 -10 55 -31 85
-47 30 -16 85 -46 123 -66 126 -69 192 -105 337 -182 80 -42 150 -81 155 -85
6 -4 87 -47 180 -95 94 -48 175 -90 180 -95 6 -4 82 -45 170 -90 88 -46 210
-110 270 -143 61 -33 189 -100 285 -150 96 -49 180 -94 187 -99 16 -13 19 -40
48 -383 14 -165 29 -349 35 -410 9 -106 14 -166 25 -325 3 -41 8 -95 10 -120
3 -25 12 -146 20 -270 13 -208 19 -306 30 -544 3 -49 7 -91 9 -93 3 -3 1 -16
-5 -30 -5 -13 -8 -34 -8 -46 1 -17 3 -15 8 8 5 21 7 8 7 -40 0 -44 -3 -61 -7
-45 -6 23 -7 22 -8 -8 -1 -19 -9 -48 -18 -64 -14 -23 -15 -32 -5 -35 6 -3 12
-20 12 -39 l0 -34 -52 -1 c-48 -1 -50 -2 -23 -10 17 -5 40 -7 53 -4 30 7 29
-16 -2 -61 -19 -28 -25 -32 -34 -21 -7 8 -9 17 -5 21 9 9 -42 56 -62 56 -8 0
-15 -5 -15 -11 0 -6 -9 -8 -20 -4 -14 4 -20 2 -20 -8 0 -21 29 -30 36 -12 12
30 64 6 64 -29 0 -13 -14 -16 -79 -16 -77 0 -79 -1 -85 -26 -7 -26 -28 -54
-41 -54 -3 0 -4 9 0 20 10 31 -5 46 -19 18 -6 -12 -20 -24 -31 -25 -16 -1 -16
-1 -2 3 9 3 18 16 19 30 4 60 4 59 -27 55 l-30 -3 28 27 c15 15 27 33 27 38 0
6 -20 -8 -44 -32 -24 -24 -48 -44 -52 -45 -14 -2 -54 -46 -42 -46 8 0 8 -4 -1
-13 -11 -9 -14 -9 -18 1 -3 7 -22 12 -44 12 -28 0 -39 4 -39 15 0 8 -6 15 -14
15 -9 0 -13 -13 -13 -39 0 -59 -28 -90 -80 -91 -24 0 -46 -1 -50 -2 -5 -2 -9
16 -11 40 l-3 42 48 -2 48 -1 -42 -4 c-40 -4 -43 -6 -43 -34 0 -27 3 -29 36
-29 42 0 58 14 67 56 5 26 1 34 -29 58 -33 26 -37 27 -53 12 -10 -9 -21 -13
-24 -10 -4 4 -11 -5 -16 -20 -6 -14 -15 -26 -21 -26 -15 0 -13 -77 3 -83 8 -3
7 -10 -7 -26 -22 -25 -36 -27 -36 -6 0 21 -17 19 -30 -5 -9 -17 -14 -18 -31
-9 -16 8 -18 13 -8 25 17 20 4 29 -38 25 -25 -2 -33 1 -28 9 4 7 18 10 31 7
18 -3 24 0 24 13 0 18 -25 30 -47 23 -7 -3 -13 -11 -13 -19 0 -10 -7 -13 -25
-8 -19 5 -25 2 -25 -10 0 -10 -9 -16 -25 -16 -14 0 -25 -4 -25 -10 0 -5 18
-10 40 -10 29 0 40 -4 40 -15 0 -11 -11 -15 -39 -15 -37 0 -71 19 -71 41 0 5
-12 9 -26 9 -24 0 -25 -2 -13 -17 12 -15 12 -16 -3 -10 -9 3 -22 -1 -28 -9
-18 -21 -30 -17 -30 11 0 16 -6 25 -15 25 -9 0 -15 -9 -15 -25 0 -14 -4 -25
-10 -25 -5 0 -10 5 -10 10 0 6 -13 10 -30 10 -20 0 -30 -5 -30 -15 0 -8 -4
-15 -10 -15 -5 0 -10 9 -10 20 0 11 4 20 9 20 5 0 12 8 15 17 4 10 4 14 0 11
-3 -4 -13 0 -22 9 -14 14 -17 14 -28 -1 -8 -12 -21 -15 -40 -11 -16 3 -22 2
-14 -2 34 -15 57 -63 30 -63 -5 0 -10 -4 -10 -10 0 -5 7 -10 15 -10 8 0 15 -4
15 -10 0 -5 -4 -10 -10 -10 -5 0 -10 -9 -10 -20 0 -11 5 -20 10 -20 6 0 10 -4
10 -10 0 -5 -7 -10 -15 -10 -8 0 -15 8 -15 18 0 24 -28 49 -60 53 -55 7 -66
-28 -23 -73 29 -30 52 -35 71 -16 9 9 12 8 12 -8 0 -29 -35 -47 -60 -32 -11 7
-20 18 -20 25 0 7 -6 13 -14 13 -23 0 -61 59 -47 73 15 15 14 27 -4 27 -8 0
-15 7 -15 15 0 21 -76 21 -84 0 -4 -12 4 -15 39 -15 33 0 45 -4 45 -15 0 -8
-9 -15 -21 -15 -11 0 -28 -4 -38 -10 -15 -7 -20 -4 -29 15 -12 27 -42 34 -42
11 0 -7 7 -19 15 -26 8 -7 15 -19 15 -26 0 -8 5 -14 10 -14 6 0 10 -4 10 -10
0 -5 -18 -10 -40 -10 -39 0 -40 1 -40 36 0 39 -23 44 -28 6 -3 -17 -10 -22
-33 -22 -19 0 -38 -9 -53 -25 -13 -14 -28 -25 -35 -25 -6 0 -11 -7 -11 -15 0
-12 4 -13 19 -6 10 6 21 17 25 26 8 21 38 19 34 -3 -2 -9 -19 -22 -38 -29 -39
-13 -120 -17 -120 -5 0 4 -17 7 -37 7 -35 0 -38 2 -36 28 l2 28 -20 -24 c-23
-30 -24 -37 -4 -37 11 0 15 -11 15 -40 0 -38 2 -40 31 -40 19 0 28 -4 23 -11
-4 -6 -20 -8 -40 -4 -20 3 -34 2 -34 -4 0 -5 4 -11 9 -13 4 -1 12 -14 16 -27
5 -17 4 -22 -5 -16 -7 4 -16 2 -20 -5 -6 -9 -13 -9 -28 -1 -11 6 -28 8 -36 5
-13 -5 -16 2 -16 35 0 23 5 41 10 41 6 0 10 18 10 40 0 29 4 40 15 40 17 0 20
16 4 25 -6 4 -13 15 -17 25 -5 13 -12 15 -27 9 -19 -8 -19 -8 3 -15 25 -7 30
-34 7 -34 -10 0 -15 -10 -15 -30 0 -35 -10 -38 -35 -10 -13 14 -22 17 -29 10
-15 -15 -46 -12 -46 5 0 9 9 15 24 15 13 0 36 7 52 15 25 13 26 15 9 21 -11 5
-20 3 -23 -4 -2 -7 -21 -12 -43 -12 -24 0 -39 -5 -40 -12 -2 -24 3 -43 14 -51
9 -5 7 -11 -6 -21 -10 -8 -18 -18 -17 -22 1 -5 -3 -10 -9 -12 -6 -2 -11 1 -11
6 0 5 -10 12 -23 14 -20 4 -22 1 -19 -29 5 -41 -6 -43 -19 -3 -6 17 -17 30
-25 30 -8 0 -14 5 -14 10 0 6 -7 10 -15 10 -8 0 -15 -4 -15 -10 0 -5 6 -10 14
-10 14 0 26 -29 26 -62 0 -10 -4 -18 -10 -18 -5 0 -10 11 -10 24 0 13 -13 38
-30 56 -16 18 -30 36 -30 41 0 5 -4 9 -10 9 -13 0 -13 -27 0 -35 7 -4 3 -14
-10 -25 -21 -18 -27 -50 -10 -50 6 0 10 9 10 20 0 22 15 27 26 9 3 -6 -5 -21
-20 -34 -19 -16 -26 -32 -26 -59 0 -35 -1 -36 -40 -36 -29 0 -40 4 -40 15 0
11 -11 15 -40 15 -29 0 -40 -4 -40 -15 0 -11 11 -15 40 -15 22 0 40 -4 40 -10
0 -5 19 -10 43 -10 43 0 43 -1 39 -30 -4 -27 -8 -30 -38 -30 -29 0 -34 -3 -34
-24 0 -13 -3 -31 -6 -40 -5 -13 -9 -12 -25 7 l-19 22 -20 -24 -20 -23 0 41 0
41 -43 0 c-31 0 -49 6 -62 20 -18 20 -18 21 4 44 13 14 21 31 18 38 -4 9 -6 7
-6 -4 -1 -10 -5 -18 -10 -18 -5 0 -17 -3 -26 -7 -15 -5 -16 -3 -5 16 6 13 9
34 6 47 -5 19 -3 24 14 24 12 0 20 -7 21 -17 1 -17 2 -17 6 0 2 9 8 17 13 17
5 0 7 7 4 15 -4 10 -20 15 -50 15 -32 0 -44 -4 -44 -15 0 -8 -5 -15 -12 -15
-6 0 -4 -6 6 -13 14 -10 17 -21 11 -45 -9 -43 -38 -59 -70 -38 -37 24 -45 20
-45 -24 0 -29 4 -40 15 -40 11 0 15 -11 15 -40 0 -22 -4 -40 -9 -40 -17 0 -71
-61 -71 -81 0 -15 -7 -19 -39 -19 -31 0 -44 -6 -60 -27 l-22 -28 -15 22 c-22
31 -37 29 -30 -4 3 -16 3 -22 0 -15 -7 14 -34 16 -34 2 0 -5 4 -10 9 -10 11 0
24 -67 16 -80 -8 -12 -35 -1 -35 15 0 7 -6 18 -13 24 -11 8 -19 5 -37 -14 -15
-16 -30 -23 -42 -19 -10 3 -18 1 -18 -5 0 -6 18 -11 40 -11 35 0 40 -3 41 -22
l0 -23 9 23 c14 33 32 27 28 -10 -3 -33 -3 -33 -58 -32 -33 1 -40 -1 -17 -3
36 -4 37 -5 37 -44 0 -24 5 -39 13 -40 10 0 10 -2 0 -6 -15 -6 -17 -33 -3 -33
6 0 10 5 10 10 0 6 7 10 16 10 20 0 49 -29 39 -38 -4 -4 -10 -1 -12 6 -6 16
-31 15 -49 -2 -8 -8 -14 -16 -14 -18 0 -2 23 -4 51 -5 33 -1 57 -7 68 -18 15
-15 15 -17 -3 -31 -27 -19 -36 -18 -36 7 0 15 -5 20 -22 17 -29 -4 -30 -32 -2
-36 15 -2 21 -10 21 -30 0 -16 8 -38 19 -50 21 -25 64 -30 64 -7 0 8 5 15 10
15 6 0 10 -6 10 -14 0 -18 30 -28 103 -35 31 -3 57 -10 57 -15 0 -14 -120 -13
-132 2 -6 6 -20 12 -31 12 -18 0 -18 -2 6 -20 14 -11 32 -20 41 -20 9 0 16 -4
16 -10 0 -14 -43 -13 -57 1 -21 21 -45 -15 -37 -56 3 -19 10 -35 15 -35 5 0 9
-6 9 -14 0 -24 21 -30 27 -7 3 12 13 21 24 21 11 0 19 5 19 10 0 6 7 10 15 10
8 0 15 -4 15 -10 0 -5 7 -10 16 -10 13 0 15 -9 13 -44 -3 -32 -1 -42 9 -39 6
3 12 -2 12 -11 0 -12 10 -16 40 -16 36 0 40 -2 40 -25 0 -14 5 -25 10 -25 6 0
10 18 10 40 0 22 5 40 10 40 6 0 10 -17 10 -38 0 -26 -6 -41 -20 -50 -11 -7
-20 -19 -20 -27 0 -8 9 -15 20 -15 11 0 20 -7 20 -15 0 -9 9 -15 21 -15 19 0
21 -5 17 -40 -2 -28 0 -40 9 -40 8 0 13 14 13 40 0 33 3 40 20 40 16 0 20 -7
20 -38 0 -47 14 -62 57 -62 26 0 36 5 43 22 5 13 9 18 9 11 1 -6 4 -18 7 -26
3 -10 -4 -17 -22 -21 -15 -4 -39 -16 -54 -26 -14 -10 -39 -20 -55 -22 -19 -2
-30 -9 -30 -18 0 -10 -9 -15 -28 -14 -17 1 -19 0 -7 -3 11 -2 20 -8 20 -13 0
-14 -68 -43 -81 -34 -7 4 -9 3 -5 -4 9 -15 -31 -35 -56 -29 -11 3 -21 0 -24
-8 -3 -7 -29 -19 -57 -25 -29 -7 -56 -16 -62 -20 -5 -5 -71 -28 -145 -53
l-134 -44 -81 24 c-44 13 -98 28 -120 34 -90 25 -139 40 -320 98 -104 33 -203
63 -220 67 -16 4 -34 9 -40 13 -5 3 -17 7 -25 8 -63 10 -531 225 -755 346
-149 80 -190 104 -332 190 -458 278 -741 478 -1159 822 -334 275 -574 498
-596 556 -9 24 -37 97 -62 162 -244 634 -435 1445 -516 2192 -37 345 -62 928
-46 1078 l8 69 146 70 c204 97 371 174 477 218 505 211 841 359 885 390 15 11
90 44 166 74 240 94 672 272 771 317 24 10 45 19 47 19 5 0 267 111 321 135
17 8 68 29 115 48 155 63 302 126 308 132 9 8 47 6 58 -4z m4277 -4654 c-4 -6
-10 -1 -15 12 -4 13 -5 28 -1 34 4 6 10 1 15 -12 4 -13 5 -28 1 -34z m2047
-17 c0 -5 -13 -10 -30 -10 -16 0 -30 5 -30 10 0 6 14 10 30 10 17 0 30 -4 30
-10z m-1679 -67 c-9 -16 -10 -16 -11 -1 0 9 3 25 7 35 7 16 8 17 11 1 2 -10
-1 -25 -7 -35z m540 30 c12 -15 12 -16 -4 -10 -10 4 -25 7 -33 7 -8 0 -14 5
-14 10 0 16 36 11 51 -7z m509 7 c0 -5 -7 -10 -15 -10 -8 0 -15 5 -15 10 0 6
7 10 15 10 8 0 15 -4 15 -10z m-186 -22 c14 -53 3 -61 -35 -28 -24 20 -24 20
-5 35 26 20 33 19 40 -7z m766 12 c0 -5 -4 -10 -10 -10 -5 0 -10 5 -10 10 0 6
5 10 10 10 6 0 10 -4 10 -10z m-2000 -30 c0 -16 -4 -30 -8 -30 -5 0 -7 14 -4
30 2 17 6 30 8 30 2 0 4 -13 4 -30z m1907 -32 c-2 -13 -4 -3 -4 22 0 25 2 35
4 23 2 -13 2 -33 0 -45z m293 50 c0 -7 -5 -20 -10 -28 -9 -13 -11 -13 -20 0
-16 24 -12 40 10 40 11 0 20 -6 20 -12z m-716 -31 c-3 -9 -10 -17 -15 -17 -11
0 -12 34 -2 43 11 12 24 -8 17 -26z m596 29 c0 -2 3 -11 6 -19 3 -8 -2 -22
-11 -31 -15 -15 -14 -16 9 -16 14 0 26 -4 26 -10 0 -5 7 -10 15 -10 18 0 20
16 3 23 -7 3 3 3 22 0 19 -4 37 -10 38 -15 5 -11 32 -10 32 2 0 6 15 10 33 10
29 -1 30 -2 12 -12 -11 -7 -26 -18 -33 -25 -17 -17 -27 -16 -42 2 -7 8 -21 15
-31 15 -11 0 -19 -7 -19 -15 0 -8 -4 -15 -9 -15 -5 0 -14 7 -21 15 -7 8 -19
15 -27 15 -8 0 -21 7 -29 15 -9 8 -11 15 -5 15 6 0 11 9 11 20 0 11 -6 20 -12
20 -9 0 -8 4 2 10 16 10 30 13 30 6z m-1620 -26 c0 -22 -16 -26 -40 -10 -13 9
-13 11 0 20 24 16 40 12 40 -10z m360 10 c13 -9 13 -11 0 -20 -8 -5 -20 -10
-26 -10 -7 0 -14 -7 -18 -15 -3 -9 -17 -15 -33 -14 -15 0 -22 3 -14 6 23 9 51
37 51 50 0 15 19 17 40 3z m770 -9 c0 -14 -10 -20 -41 -25 -55 -9 -61 0 -10
14 23 6 41 15 41 20 0 6 2 10 5 10 3 0 5 -8 5 -19z m67 -13 c-3 -7 -5 -2 -5
12 0 14 2 19 5 13 2 -7 2 -19 0 -25z m193 17 c0 -16 -30 -29 -30 -12 0 7 -9 1
-20 -13 l-20 -25 0 32 c0 29 2 31 35 31 22 0 35 -5 35 -13z m680 -65 c0 -13
-1 -13 -10 0 -5 8 -10 22 -10 30 0 13 1 13 10 0 5 -8 10 -22 10 -30z m-1010 5
c0 -8 -4 -15 -10 -15 -5 0 -10 7 -10 15 0 8 5 15 10 15 6 0 10 -7 10 -15z
m100 11 c0 -15 -14 -35 -21 -30 -15 9 -10 34 6 34 8 0 15 -2 15 -4z m245 -6
c3 -5 1 -10 -4 -10 -6 0 -11 5 -11 10 0 6 2 10 4 10 3 0 8 -4 11 -10z m112
-12 c-3 -8 -6 -5 -6 6 -1 11 2 17 5 13 3 -3 4 -12 1 -19z m403 -5 c0 -22 -2
-25 -10 -13 -13 20 -13 40 0 40 6 0 10 -12 10 -27z m-964 -20 c-11 -11 -19 6
-11 24 8 17 8 17 12 0 3 -10 2 -21 -1 -24z m-1824 -5 c-9 -9 -12 -7 -12 12 0
19 3 21 12 12 9 -9 9 -15 0 -24z m1108 17 c0 -8 -4 -15 -10 -15 -5 0 -10 7
-10 15 0 8 5 15 10 15 6 0 10 -7 10 -15z m396 -12 c-10 -10 -19 5 -10 18 6 11
8 11 12 0 2 -7 1 -15 -2 -18z m1204 17 c0 -5 -2 -10 -4 -10 -3 0 -8 5 -11 10
-3 6 -1 10 4 10 6 0 11 -4 11 -10z m-2980 -25 c0 -8 -9 -15 -20 -15 -11 0 -20
7 -20 15 0 8 9 15 20 15 11 0 20 -7 20 -15z m2950 5 c0 -5 -4 -10 -10 -10 -5
0 -10 5 -10 10 0 6 5 10 10 10 6 0 10 -4 10 -10z m197 -22 c-3 -8 -6 -5 -6 6
-1 11 2 17 5 13 3 -3 4 -12 1 -19z m70 0 c-3 -8 -6 -5 -6 6 -1 11 2 17 5 13 3
-3 4 -12 1 -19z m-1412 -8 c3 -5 2 -10 -4 -10 -5 0 -13 5 -16 10 -3 6 -2 10 4
10 5 0 13 -4 16 -10z m-1645 -15 c0 -8 -9 -15 -20 -15 -11 0 -20 7 -20 15 0 8
9 15 20 15 11 0 20 -7 20 -15z m280 6 c0 -6 -4 -13 -10 -16 -5 -3 -10 1 -10 9
0 9 5 16 10 16 6 0 10 -4 10 -9z m137 3 c-3 -3 -12 -4 -19 -1 -8 3 -5 6 6 6
11 1 17 -2 13 -5z m100 -16 c-3 -8 -6 -5 -6 6 -1 11 2 17 5 13 3 -3 4 -12 1
-19z m858 12 c8 -13 -25 -13 -45 0 -12 8 -9 10 12 10 15 0 30 -4 33 -10z
m1042 -12 c-3 -8 -6 -5 -6 6 -1 11 2 17 5 13 3 -3 4 -12 1 -19z m53 12 c0 -5
-4 -10 -9 -10 -6 0 -13 5 -16 10 -3 6 1 10 9 10 9 0 16 -4 16 -10z m-2430 -25
c0 -8 -4 -15 -10 -15 -5 0 -10 7 -10 15 0 8 5 15 10 15 6 0 10 -7 10 -15z m60
0 c0 -8 -4 -15 -10 -15 -5 0 -10 7 -10 15 0 8 5 15 10 15 6 0 10 -7 10 -15z
m1047 -7 c-3 -8 -6 -5 -6 6 -1 11 2 17 5 13 3 -3 4 -12 1 -19z m-1077 -33 c0
-8 -7 -15 -15 -15 -9 0 -12 6 -9 15 4 8 10 15 15 15 5 0 9 -7 9 -15z m-150
-15 c0 -5 -4 -10 -9 -10 -6 0 -13 5 -16 10 -3 6 1 10 9 10 9 0 16 -4 16 -10z
m3290 6 c0 -2 -3 -11 -6 -20 -9 -23 -24 -20 -24 4 0 11 7 20 15 20 8 0 15 -2
15 -4z m-3340 -16 c0 -5 -5 -10 -11 -10 -5 0 -7 5 -4 10 3 6 8 10 11 10 2 0 4
-4 4 -10z m3197 -25 c-15 -16 -19 -13 -11 9 3 9 10 13 15 10 5 -3 3 -11 -4
-19z m211 7 c2 -7 -6 -12 -17 -12 -21 0 -27 11 -14 24 9 9 26 2 31 -12z m212
-2 c0 -5 -6 -10 -14 -10 -8 0 -18 5 -21 10 -3 6 3 10 14 10 12 0 21 -4 21 -10z
m-4060 -10 c0 -5 -4 -10 -10 -10 -5 0 -10 5 -10 10 0 6 5 10 10 10 6 0 10 -4
10 -10z m470 0 c0 -5 -5 -10 -11 -10 -5 0 -7 5 -4 10 3 6 8 10 11 10 2 0 4 -4
4 -10z m-500 -38 c-23 -4 -25 -13 -9 -29 9 -9 5 -19 -13 -42 -14 -16 -29 -27
-32 -24 -11 12 -6 22 15 28 24 8 23 43 -3 59 -13 8 -23 8 -38 -2 -17 -10 -20
-10 -20 3 0 11 11 15 40 15 22 0 40 5 40 10 0 6 8 5 20 -2 l21 -13 -21 -3z
m4137 12 c-3 -3 -12 -4 -19 -1 -8 3 -5 6 6 6 11 1 17 -2 13 -5z m-4289 -16
c-6 -18 -25 -20 -31 -3 -5 10 0 15 14 15 12 0 19 -5 17 -12z m472 8 c0 -11
-19 -15 -25 -6 -3 5 1 10 9 10 9 0 16 -2 16 -4z m3765 -6 c-3 -5 -10 -10 -16
-10 -5 0 -9 5 -9 10 0 6 7 10 16 10 8 0 12 -4 9 -10z m-4025 -22 c0 -16 -3
-19 -11 -11 -6 6 -8 16 -5 22 11 17 16 13 16 -11z m-268 -20 c-9 -9 -12 -7
-12 12 0 19 3 21 12 12 9 -9 9 -15 0 -24z m3888 28 c0 -3 -4 -8 -10 -11 -5 -3
-10 -1 -10 4 0 6 5 11 10 11 6 0 10 -2 10 -4z m-3730 -26 c0 -5 -4 -10 -10
-10 -5 0 -10 5 -10 10 0 6 5 10 10 10 6 0 10 -4 10 -10z m-380 -15 c-7 -8 -21
-15 -32 -15 -17 0 -18 3 -8 15 7 8 21 15 32 15 17 0 18 -3 8 -15z m4417 -7
c-3 -8 -6 -5 -6 6 -1 11 2 17 5 13 3 -3 4 -12 1 -19z m-4287 2 c0 -5 -9 -10
-20 -10 -11 0 -20 5 -20 10 0 6 9 10 20 10 11 0 20 -4 20 -10z m353 -7 c-7 -2
-19 -2 -25 0 -7 3 -2 5 12 5 14 0 19 -2 13 -5z m3680 0 c-7 -2 -19 -2 -25 0
-7 3 -2 5 12 5 14 0 19 -2 13 -5z m-3826 -45 c-3 -8 -6 -5 -6 6 -1 11 2 17 5
13 3 -3 4 -12 1 -19z m3993 -8 c0 -5 -5 -10 -11 -10 -5 0 -7 5 -4 10 3 6 8 10
11 10 2 0 4 -4 4 -10z m180 -30 c0 -11 -4 -20 -10 -20 -5 0 -10 9 -10 20 0 11
5 20 10 20 6 0 10 -9 10 -20z m-4399 0 c5 0 9 -4 9 -10 0 -15 -20 -12 -38 7
-16 16 -16 16 1 10 10 -4 23 -7 28 -7z m-261 -10 c0 -5 -4 -10 -9 -10 -6 0
-13 5 -16 10 -3 6 1 10 9 10 9 0 16 -4 16 -10z m79 -6 c2 -2 2 -7 -1 -10 -4
-3 -19 2 -35 11 l-28 16 30 -6 c16 -4 32 -9 34 -11z m-559 -34 c0 -5 -2 -10
-4 -10 -3 0 -8 5 -11 10 -3 6 -1 10 4 10 6 0 11 -4 11 -10z m525 0 c3 -5 1
-10 -4 -10 -6 0 -11 5 -11 10 0 6 2 10 4 10 3 0 8 -4 11 -10z m4555 0 c0 -5
-9 -10 -20 -10 -11 0 -20 5 -20 10 0 6 9 10 20 10 11 0 20 -4 20 -10z m-5083
-36 c-3 -3 -12 -4 -19 -1 -8 3 -5 6 6 6 11 1 17 -2 13 -5z m5180 -16 c-3 -8
-6 -5 -6 6 -1 11 2 17 5 13 3 -3 4 -12 1 -19z m-5227 -8 c0 -5 -7 -10 -15 -10
-8 0 -15 5 -15 10 0 6 7 10 15 10 8 0 15 -4 15 -10z m5364 -19 c3 -5 -3 -11
-14 -14 -13 -3 -20 0 -20 9 0 15 26 19 34 5z m-5314 -11 c0 -5 -4 -10 -9 -10
-6 0 -13 5 -16 10 -3 6 1 10 9 10 9 0 16 -4 16 -10z m5045 -21 c-10 -15 -25
-10 -19 6 4 8 10 12 15 9 5 -3 7 -10 4 -15z m312 5 c-3 -3 -12 -4 -19 -1 -8 3
-5 6 6 6 11 1 17 -2 13 -5z m-5369 -16 c9 -9 12 -9 12 0 0 7 12 12 26 12 14 0
23 -4 19 -10 -3 -5 -15 -10 -25 -10 -10 0 -20 -5 -22 -11 -2 -6 -12 -1 -22 10
-20 22 -9 30 12 9z m5232 8 c0 -3 -4 -8 -10 -11 -5 -3 -10 -1 -10 4 0 6 5 11
10 11 6 0 10 -2 10 -4z m370 -1 c0 -11 -24 -55 -30 -55 -6 0 -30 44 -30 55 0
3 14 5 30 5 17 0 30 -2 30 -5z m-5780 -20 c0 -9 -9 -15 -25 -15 -16 0 -25 6
-25 15 0 9 9 15 25 15 16 0 25 -6 25 -15z m70 -41 c0 -8 -7 -14 -15 -14 -15 0
-21 21 -9 33 10 9 24 -2 24 -19z m37 -6 c-3 -8 -6 -5 -6 6 -1 11 2 17 5 13 3
-3 4 -12 1 -19z m-107 3 c0 -5 -12 -11 -27 -14 -26 -5 -26 -4 -8 9 22 16 35
18 35 5z m5405 -1 c3 -5 1 -10 -4 -10 -6 0 -11 5 -11 10 0 6 2 10 4 10 3 0 8
-4 11 -10z m148 -17 c-13 -2 -23 -11 -23 -20 0 -9 6 -13 15 -9 8 3 22 3 30 0
19 -8 20 -44 0 -44 -9 0 -12 6 -9 15 4 8 1 15 -4 15 -6 0 -12 -8 -15 -17 -3
-16 -5 -16 -12 2 -5 11 -13 23 -18 26 -19 13 2 39 30 38 24 -2 25 -2 6 -6z
m-5633 -57 c0 -8 -6 -16 -14 -19 -10 -4 -12 0 -9 14 6 22 23 26 23 5z m79 -15
c-15 -5 -22 6 -14 19 6 9 10 9 16 -1 5 -8 4 -15 -2 -18z m5401 15 c0 -8 -4
-18 -10 -21 -5 -3 -10 3 -10 14 0 12 5 21 10 21 6 0 10 -6 10 -14z m67 -8 c-3
-8 -6 -5 -6 6 -1 11 2 17 5 13 3 -3 4 -12 1 -19z m61 -23 c9 -18 8 -24 -4 -29
-24 -9 -45 4 -35 22 4 10 6 23 4 30 -8 22 24 2 35 -23z m-5261 -17 c-3 -7 -5
-2 -5 12 0 14 2 19 5 13 2 -7 2 -19 0 -25z m5173 17 c0 -8 -4 -15 -10 -15 -5
0 -10 7 -10 15 0 8 5 15 10 15 6 0 10 -7 10 -15z m-100 -5 c0 -5 -4 -10 -10
-10 -5 0 -10 5 -10 10 0 6 5 10 10 10 6 0 10 -4 10 -10z m-5710 -20 c0 -11 -7
-20 -15 -20 -8 0 -15 9 -15 20 0 11 7 20 15 20 8 0 15 -9 15 -20z m5998 5 c2
-2 -15 -5 -37 -7 -29 -2 -41 0 -41 10 0 10 10 11 38 6 20 -4 38 -8 40 -9z
m-238 -5 c0 -5 -4 -10 -10 -10 -5 0 -10 5 -10 10 0 6 5 10 10 10 6 0 10 -4 10
-10z m0 -45 c0 -9 -6 -12 -16 -8 -13 5 -13 7 -2 14 17 11 18 11 18 -6z m-5700
-5 c0 -5 -9 -10 -20 -10 -11 0 -20 5 -20 10 0 6 9 10 20 10 11 0 20 -4 20 -10z
m5846 -4 c13 -14 19 -36 10 -36 -3 0 -17 11 -32 25 -21 20 -23 25 -10 25 10 0
24 -6 32 -14z m-5892 -38 c-6 -10 -44 9 -44 22 0 4 6 10 13 13 13 4 38 -23 31
-35z m79 12 c-22 -22 -37 -15 -21 9 6 11 18 17 25 14 11 -4 10 -9 -4 -23z
m5747 2 c0 -5 12 -14 26 -21 31 -14 30 -16 -16 -25 -25 -4 -31 -3 -20 4 11 7
3 10 -30 10 -28 0 -40 -3 -32 -9 11 -6 10 -10 -4 -15 -22 -8 -39 16 -19 27 8
4 15 15 15 22 0 11 12 15 40 15 22 0 40 -4 40 -8z m-5357 -47 c-3 -9 -8 -14
-10 -11 -3 3 -2 9 2 15 9 16 15 13 8 -4z m4982 -5 c-3 -5 -10 -10 -16 -10 -5
0 -9 5 -9 10 0 6 7 10 16 10 8 0 12 -4 9 -10z m1405 -4 c0 -2 -7 -9 -15 -16
-13 -11 -14 -10 -9 4 5 14 24 23 24 12z m-1270 -69 c12 -4 12 -6 -2 -6 -29 -2
-47 10 -41 26 5 14 8 14 17 1 6 -8 18 -17 26 -21z m84 -21 c-3 -9 -10 -16 -15
-16 -14 0 -11 28 4 33 16 6 19 3 11 -17z m-5607 -8 c-3 -8 -6 -5 -6 6 -1 11 2
17 5 13 3 -3 4 -12 1 -19z m5443 -8 c0 -5 -4 -10 -10 -10 -5 0 -10 5 -10 10 0
6 5 10 10 10 6 0 10 -4 10 -10z m76 -37 c-10 -10 -19 5 -10 18 6 11 8 11 12 0
2 -7 1 -15 -2 -18z m-6076 7 c0 -5 -4 -10 -10 -10 -5 0 -10 5 -10 10 0 6 5 10
10 10 6 0 10 -4 10 -10z m6168 -25 c43 -45 0 -63 -45 -19 -21 21 -23 28 -12
35 22 14 32 11 57 -16z m-6012 -7 c-3 -13 -6 -31 -6 -40 0 -10 -7 -18 -16 -18
-12 0 -14 7 -9 30 9 41 -13 40 -27 -1 l-11 -32 -13 24 c-20 36 -18 51 6 44 11
-4 20 -2 20 4 0 6 14 11 31 11 28 0 31 -3 25 -22z m81 16 c-3 -3 -12 -4 -19
-1 -8 3 -5 6 6 6 11 1 17 -2 13 -5z m-47 -34 c0 -5 -7 -10 -15 -10 -8 0 -15 5
-15 10 0 6 7 10 15 10 8 0 15 -4 15 -10z m130 0 c0 -5 -7 -10 -15 -10 -8 0
-15 5 -15 10 0 6 7 10 15 10 8 0 15 -4 15 -10z m-73 -55 c1 -15 0 -15 -3 -3
-3 9 -13 19 -22 22 -12 3 -12 4 3 3 12 -1 21 -10 22 -22z m5936 15 c8 0 7 -4
-1 -12 -9 -9 -16 -8 -30 6 -16 18 -16 19 1 12 10 -3 24 -6 30 -6z m-58 -10
c-3 -5 -10 -10 -16 -10 -5 0 -9 5 -9 10 0 6 7 10 16 10 8 0 12 -4 9 -10z
m-5968 -52 c-2 -13 -4 -5 -4 17 -1 22 1 32 4 23 2 -10 2 -28 0 -40z m59 31
c10 -17 -13 -36 -27 -22 -12 12 -4 33 11 33 5 0 12 -5 16 -11z m5881 -15 c-9
-9 -28 6 -21 18 4 6 10 6 17 -1 6 -6 8 -13 4 -17z m48 6 c3 -5 1 -10 -4 -10
-6 0 -11 5 -11 10 0 6 2 10 4 10 3 0 8 -4 11 -10z m-5840 -9 c3 -5 1 -12 -5
-16 -5 -3 -10 1 -10 9 0 18 6 21 15 7z m5926 -20 c7 11 9 11 9 -3 0 -11 -8
-18 -20 -18 -11 0 -20 6 -20 13 0 22 15 30 19 11 2 -14 5 -14 12 -3z m-5965
-18 c-7 -7 -26 7 -26 19 0 6 6 6 15 -2 9 -7 13 -15 11 -17z m-71 -28 l-30 -13
28 -13 c22 -10 25 -14 13 -21 -24 -14 -46 2 -46 33 0 26 3 29 33 28 l32 -1
-30 -13z m-55 -5 c0 -5 -9 -10 -20 -10 -11 0 -20 5 -20 10 0 6 9 10 20 10 11
0 20 -4 20 -10z m120 -31 c0 -5 -4 -9 -10 -9 -5 0 -10 7 -10 16 0 8 5 12 10 9
6 -3 10 -10 10 -16z m61 -62 c-10 -9 -11 -8 -5 6 3 10 9 15 12 12 3 -3 0 -11
-7 -18z m-28 -24 c-7 -2 -19 -2 -25 0 -7 3 -2 5 12 5 14 0 19 -2 13 -5z m-163
-18 c0 -19 -11 -19 -36 0 -18 14 -18 14 9 15 17 0 27 -5 27 -15z m130 -5 c0
-5 -4 -10 -10 -10 -5 0 -10 5 -10 10 0 6 5 10 10 10 6 0 10 -4 10 -10z m144
-76 c5 -14 4 -15 -9 -4 -17 14 -19 20 -6 20 5 0 12 -7 15 -16z m73 -286 c-2
-13 -4 -3 -4 22 0 25 2 35 4 23 2 -13 2 -33 0 -45z m97 -83 c3 -8 1 -15 -4
-15 -6 0 -10 7 -10 15 0 8 2 15 4 15 2 0 6 -7 10 -15z m11 -45 c-3 -5 -10 -10
-16 -10 -5 0 -9 5 -9 10 0 6 7 10 16 10 8 0 12 -4 9 -10z m2 -46 c-3 -3 -12
-4 -19 -1 -8 3 -5 6 6 6 11 1 17 -2 13 -5z m128 -24 c-3 -5 -12 -10 -20 -10
-8 0 -17 5 -20 10 -4 6 5 10 20 10 15 0 24 -4 20 -10z"/>
<path d="M13310 5490 c0 -5 5 -10 11 -10 5 0 7 5 4 10 -3 6 -8 10 -11 10 -2 0
-4 -4 -4 -10z"/>
<path d="M13950 5471 c0 -5 -7 -17 -16 -25 -14 -15 -14 -16 5 -16 11 0 25 9
31 19 13 26 13 31 -5 31 -8 0 -15 -4 -15 -9z"/>
<path d="M14800 5469 c0 -5 5 -7 10 -4 6 3 10 8 10 11 0 2 -4 4 -10 4 -5 0
-10 -5 -10 -11z"/>
<path d="M14560 5449 c0 -5 5 -7 10 -4 6 3 10 8 10 11 0 2 -4 4 -10 4 -5 0
-10 -5 -10 -11z"/>
<path d="M13361 5421 c-1 -27 2 -32 11 -23 8 8 8 17 0 34 -10 22 -11 21 -11
-11z"/>
<path d="M13840 5434 c0 -8 5 -12 10 -9 6 4 8 11 5 16 -9 14 -15 11 -15 -7z"/>
<path d="M14110 5440 c0 -5 7 -10 15 -10 8 0 15 5 15 10 0 6 -7 10 -15 10 -8
0 -15 -4 -15 -10z"/>
<path d="M14380 5438 c0 -7 5 -20 10 -28 8 -12 10 -9 10 13 0 15 -4 27 -10 27
-5 0 -10 -6 -10 -12z"/>
<path d="M12785 5431 c-3 -5 -1 -12 5 -16 5 -3 10 1 10 9 0 18 -6 21 -15 7z"/>
<path d="M14980 5416 c0 -9 5 -16 10 -16 6 0 10 4 10 9 0 6 -4 13 -10 16 -5 3
-10 -1 -10 -9z"/>
<path d="M12481 5403 c-1 -12 -7 -24 -13 -26 -10 -4 -10 -6 0 -6 15 -1 26 23
19 41 -3 7 -6 3 -6 -9z"/>
<path d="M12551 5404 c0 -11 3 -14 6 -6 3 7 2 16 -1 19 -3 4 -6 -2 -5 -13z"/>
<path d="M13485 5410 c-3 -5 3 -10 14 -10 12 0 21 5 21 10 0 6 -6 10 -14 10
-8 0 -18 -4 -21 -10z"/>
<path d="M13985 5410 c-3 -5 -1 -10 4 -10 6 0 11 5 11 10 0 6 -2 10 -4 10 -3
0 -8 -4 -11 -10z"/>
<path d="M14335 5410 c-3 -5 1 -10 9 -10 9 0 16 5 16 10 0 6 -4 10 -9 10 -6 0
-13 -4 -16 -10z"/>
<path d="M14800 5411 c0 -6 -11 -11 -25 -11 -28 0 -34 -17 -9 -27 18 -7 59 33
44 42 -6 3 -10 1 -10 -4z"/>
<path d="M14588 5403 c7 -3 16 -2 19 1 4 3 -2 6 -13 5 -11 0 -14 -3 -6 -6z"/>
<path d="M12355 5363 c8 -44 24 -68 37 -55 13 13 -14 92 -31 92 -10 0 -12 -9
-6 -37z"/>
<path d="M12400 5389 c0 -5 5 -7 10 -4 6 3 10 8 10 11 0 2 -4 4 -10 4 -5 0
-10 -5 -10 -11z"/>
<path d="M12670 5385 c0 -8 5 -15 10 -15 6 0 10 7 10 15 0 8 -4 15 -10 15 -5
0 -10 -7 -10 -15z"/>
<path d="M12797 5388 c-3 -10 7 -12 39 -9 24 1 44 7 44 12 0 14 -77 11 -83 -3z"/>
<path d="M12960 5390 c0 -5 4 -10 9 -10 6 0 13 5 16 10 3 6 -1 10 -9 10 -9 0
-16 -4 -16 -10z"/>
<path d="M14138 5393 c7 -3 16 -2 19 1 4 3 -2 6 -13 5 -11 0 -14 -3 -6 -6z"/>
<path d="M14190 5385 c0 -10 -10 -15 -30 -15 -16 0 -30 -4 -30 -10 0 -5 7 -10
15 -10 9 0 15 -9 16 -22 0 -20 2 -19 16 9 14 28 38 46 65 48 3 0 10 3 14 8 4
4 -9 7 -29 7 -26 0 -37 -4 -37 -15z"/>
<path d="M14640 5389 c0 -5 5 -7 10 -4 6 3 10 8 10 11 0 2 -4 4 -10 4 -5 0
-10 -5 -10 -11z"/>
<path d="M14281 5372 c-7 -13 -7 -22 1 -30 12 -12 1 -35 -13 -27 -5 3 -6 -1
-3 -9 8 -21 24 -20 24 1 0 9 3 13 6 10 4 -3 18 3 32 13 13 11 35 20 48 20 17
0 24 6 24 20 0 17 -3 19 -19 10 -11 -5 -29 -10 -40 -10 -15 0 -21 -6 -21 -21
0 -12 -5 -19 -12 -16 -14 5 -14 11 -3 40 9 23 -12 22 -24 -1z"/>
<path d="M13453 5365 c9 -8 17 -19 19 -25 5 -15 68 0 68 16 0 17 -17 19 -22 2
-3 -8 -11 -7 -28 5 -32 22 -58 24 -37 2z"/>
<path d="M13780 5370 c0 -5 9 -10 20 -10 11 0 20 5 20 10 0 6 -9 10 -20 10
-11 0 -20 -4 -20 -10z"/>
<path d="M14530 5370 c0 -15 27 -23 47 -16 15 6 15 8 3 16 -20 13 -50 12 -50
0z"/>
<path d="M15120 5369 c0 -5 5 -7 10 -4 6 3 10 8 10 11 0 2 -4 4 -10 4 -5 0
-10 -5 -10 -11z"/>
<path d="M13160 5355 c-7 -8 -21 -15 -32 -15 -11 0 -18 -5 -15 -12 2 -7 0 -21
-5 -30 -12 -24 7 -58 32 -58 11 0 20 5 20 10 0 6 -7 10 -15 10 -8 0 -15 9 -15
20 0 11 4 20 9 20 14 0 61 45 61 59 0 16 -25 14 -40 -4z"/>
<path d="M13250 5360 c0 -5 25 -10 55 -10 30 0 55 5 55 10 0 6 -25 10 -55 10
-30 0 -55 -4 -55 -10z"/>
<path d="M13390 5360 c0 -5 5 -10 10 -10 6 0 10 5 10 10 0 6 -4 10 -10 10 -5
0 -10 -4 -10 -10z"/>
<path d="M13597 5363 c-15 -14 -5 -18 38 -15 40 4 45 2 45 -17 0 -12 4 -21 9
-21 6 0 6 12 0 30 -10 26 -16 30 -48 30 -21 0 -41 -3 -44 -7z"/>
<path d="M12400 5350 c0 -5 9 -10 20 -10 11 0 20 5 20 10 0 6 -9 10 -20 10
-11 0 -20 -4 -20 -10z"/>
<path d="M14237 5340 c-3 -11 -2 -22 3 -25 4 -3 10 4 13 15 3 11 2 22 -3 25
-4 3 -10 -4 -13 -15z"/>
<path d="M12641 5334 c0 -11 3 -14 6 -6 3 7 2 16 -1 19 -3 4 -6 -2 -5 -13z"/>
<path d="M12750 5340 c0 -5 5 -10 10 -10 6 0 10 5 10 10 0 6 -4 10 -10 10 -5
0 -10 -4 -10 -10z"/>
<path d="M14080 5340 c0 -5 7 -10 15 -10 8 0 15 5 15 10 0 6 -7 10 -15 10 -8
0 -15 -4 -15 -10z"/>
<path d="M12500 5328 c0 -12 7 -18 23 -17 15 0 17 2 7 6 -8 3 -18 11 -22 17
-5 7 -8 4 -8 -6z"/>
<path d="M13015 5330 c-4 -6 -10 -8 -15 -5 -5 3 -11 1 -14 -3 -3 -5 7 -8 21
-7 15 0 28 6 31 13 5 15 -14 16 -23 2z"/>
<path d="M13760 5330 c0 -6 7 -10 15 -10 8 0 15 2 15 4 0 2 -7 6 -15 10 -8 3
-15 1 -15 -4z"/>
<path d="M14480 5332 c0 -4 5 -13 11 -19 8 -8 8 -19 -2 -42 -14 -32 -49 -43
-49 -16 0 8 -4 15 -10 15 -21 0 -9 -27 17 -39 19 -9 28 -9 33 -1 4 6 13 10 21
8 9 -2 13 5 11 21 -1 13 3 30 9 37 8 10 7 17 -4 29 -17 16 -37 20 -37 7z"/>
<path d="M14705 5330 c-3 -5 -1 -10 4 -10 6 0 11 5 11 10 0 6 -2 10 -4 10 -3
0 -8 -4 -11 -10z"/>
<path d="M14735 5330 c-4 -6 5 -10 19 -10 14 0 26 5 26 10 0 6 -9 10 -19 10
-11 0 -23 -4 -26 -10z"/>
<path d="M13044 5319 c-2 -4 1 -11 7 -15 6 -3 9 -19 5 -35 -4 -22 -2 -29 9
-29 11 0 15 12 15 43 0 33 -4 44 -15 44 -9 0 -18 -4 -21 -8z"/>
<path d="M15118 5323 c6 -2 18 -2 25 0 6 3 1 5 -13 5 -14 0 -19 -2 -12 -5z"/>
<path d="M12588 5308 c9 -9 15 -9 24 0 9 9 7 12 -12 12 -19 0 -21 -3 -12 -12z"/>
<path d="M14440 5305 c0 -8 5 -15 10 -15 6 0 10 7 10 15 0 8 -4 15 -10 15 -5
0 -10 -7 -10 -15z"/>
<path d="M14545 5310 c3 -5 8 -10 11 -10 2 0 4 5 4 10 0 6 -5 10 -11 10 -5 0
-7 -4 -4 -10z"/>
<path d="M14650 5310 c0 -5 4 -10 9 -10 6 0 13 5 16 10 3 6 -1 10 -9 10 -9 0
-16 -4 -16 -10z"/>
<path d="M14860 5316 c0 -2 7 -9 15 -16 13 -11 14 -10 9 4 -5 14 -24 23 -24
12z"/>
<path d="M15080 5309 c0 -5 5 -7 10 -4 6 3 10 8 10 11 0 2 -4 4 -10 4 -5 0
-10 -5 -10 -11z"/>
<path d="M15520 5309 c0 -5 5 -7 10 -4 6 3 10 8 10 11 0 2 -4 4 -10 4 -5 0
-10 -5 -10 -11z"/>
<path d="M14915 5299 c-10 -15 1 -23 20 -15 9 3 13 10 10 16 -8 13 -22 13 -30
-1z"/>
<path d="M12557 5279 c4 -13 9 -17 15 -11 11 11 3 32 -12 32 -4 0 -6 -9 -3
-21z"/>
<path d="M12624 5289 c-3 -6 -1 -16 5 -22 8 -8 11 -5 11 11 0 24 -5 28 -16 11z"/>
<path d="M12700 5287 c-14 -7 -27 -21 -29 -32 -3 -17 -2 -18 14 -5 10 8 32 15
49 15 21 0 31 5 31 15 0 20 -34 23 -65 7z"/>
<path d="M13165 5290 c-4 -6 -3 -16 3 -22 6 -6 12 -6 17 2 4 6 3 16 -3 22 -6
6 -12 6 -17 -2z"/>
<path d="M14711 5290 c-1 -20 48 -43 64 -30 7 6 20 8 29 4 18 -7 23 20 6 31
-5 3 -10 1 -10 -4 0 -15 -77 -14 -83 2 -4 8 -6 7 -6 -3z"/>
<path d="M15616 5285 c4 -8 10 -12 15 -9 14 8 10 24 -6 24 -9 0 -12 -6 -9 -15z"/>
<path d="M15310 5270 c0 -5 5 -10 10 -10 6 0 10 5 10 10 0 6 -4 10 -10 10 -5
0 -10 -4 -10 -10z"/>
<path d="M14860 5250 c0 -5 5 -10 10 -10 6 0 10 5 10 10 0 6 -4 10 -10 10 -5
0 -10 -4 -10 -10z"/>
<path d="M15090 5246 c0 -2 7 -7 16 -10 8 -3 12 -2 9 4 -6 10 -25 14 -25 6z"/>
<path d="M15350 5228 c0 -12 3 -17 8 -12 4 5 11 12 15 15 5 3 2 9 -7 12 -12 5
-16 0 -16 -15z"/>
<path d="M15060 5223 c0 -13 5 -23 10 -23 13 0 13 11 0 30 -8 12 -10 11 -10
-7z"/>
<path d="M15208 5233 c7 -3 16 -2 19 1 4 3 -2 6 -13 5 -11 0 -14 -3 -6 -6z"/>
<path d="M15185 5210 c-3 -5 -1 -10 4 -10 6 0 11 5 11 10 0 6 -2 10 -4 10 -3
0 -8 -4 -11 -10z"/>
<path d="M15125 5179 c-12 -19 5 -23 22 -6 16 16 16 17 1 17 -9 0 -20 -5 -23
-11z"/>
<path d="M15301 5174 c0 -11 3 -14 6 -6 3 7 2 16 -1 19 -3 4 -6 -2 -5 -13z"/>
<path d="M15368 5183 c7 -3 16 -2 19 1 4 3 -2 6 -13 5 -11 0 -14 -3 -6 -6z"/>
<path d="M15256 5165 c-19 -14 -19 -15 7 -15 19 0 25 4 21 15 -4 8 -7 15 -8
15 0 0 -10 -7 -20 -15z"/>
<path d="M15517 5141 c-4 -17 -3 -21 5 -13 5 5 8 16 6 23 -3 8 -7 3 -11 -10z"/>
<path d="M14720 5130 c0 -19 3 -21 12 -12 9 9 9 15 0 24 -9 9 -12 7 -12 -12z"/>
<path d="M15445 5120 c3 -5 10 -10 16 -10 5 0 9 5 9 10 0 6 -7 10 -16 10 -8 0
-12 -4 -9 -10z"/>
<path d="M15200 5110 c0 -5 5 -10 11 -10 5 0 7 5 4 10 -3 6 -8 10 -11 10 -2 0
-4 -4 -4 -10z"/>
<path d="M15591 5094 c0 -11 3 -14 6 -6 3 7 2 16 -1 19 -3 4 -6 -2 -5 -13z"/>
<path d="M15388 5083 c6 -2 18 -2 25 0 6 3 1 5 -13 5 -14 0 -19 -2 -12 -5z"/>
<path d="M15460 5050 c-13 -9 -13 -11 0 -20 18 -11 39 5 24 20 -6 6 -15 6 -24
0z"/>
<path d="M15360 5010 c0 -5 18 -10 40 -10 22 0 40 5 40 10 0 6 -18 10 -40 10
-22 0 -40 -4 -40 -10z"/>
<path d="M15260 5000 c14 -4 19 -8 13 -9 -17 -1 -16 -19 2 -37 13 -14 16 -14
21 -1 9 24 -14 57 -39 56 -21 -1 -21 -1 3 -9z"/>
<path d="M15200 4975 c0 -8 5 -15 10 -15 6 0 10 -7 10 -15 0 -8 9 -15 20 -15
11 0 20 7 20 15 0 8 -9 15 -20 15 -11 0 -20 7 -20 15 0 8 -4 15 -10 15 -5 0
-10 -7 -10 -15z"/>
<path d="M15175 4930 c-3 -5 1 -10 9 -10 9 0 16 5 16 10 0 6 -4 10 -9 10 -6 0
-13 -4 -16 -10z"/>
<path d="M15410 4930 c0 -5 -9 -10 -21 -10 -11 0 -17 -4 -14 -10 7 -11 58 -14
68 -4 3 3 3 12 0 20 -6 16 -33 19 -33 4z"/>
<path d="M15450 4885 c-7 -9 -9 -19 -5 -23 4 -4 10 -1 12 6 3 6 11 12 19 12 9
0 12 5 9 10 -9 14 -21 12 -35 -5z"/>
<path d="M15245 4880 c-8 -14 3 -30 21 -30 8 0 14 9 14 20 0 21 -24 28 -35 10z"/>
<path d="M15510 4875 c-8 -9 -8 -15 -2 -15 12 0 26 19 19 26 -2 2 -10 -2 -17
-11z"/>
<path d="M15570 4865 c0 -2 9 -9 20 -15 16 -9 18 -8 14 5 -5 13 -34 22 -34 10z"/>
<path d="M15538 4843 c7 -3 16 -2 19 1 4 3 -2 6 -13 5 -11 0 -14 -3 -6 -6z"/>
<path d="M15520 4760 c0 -11 5 -20 10 -20 6 0 10 9 10 20 0 11 -4 20 -10 20
-5 0 -10 -9 -10 -20z"/>
<path d="M15635 4760 c-3 -5 -2 -10 4 -10 5 0 13 5 16 10 3 6 2 10 -4 10 -5 0
-13 -4 -16 -10z"/>
<path d="M15468 4753 c7 -3 16 -2 19 1 4 3 -2 6 -13 5 -11 0 -14 -3 -6 -6z"/>
<path d="M15224 4649 c-10 -17 13 -36 27 -22 12 12 4 33 -11 33 -5 0 -12 -5
-16 -11z"/>
<path d="M15596 4634 c-5 -12 -2 -15 10 -10 8 3 18 6 20 6 3 0 2 5 -1 10 -9
15 -22 12 -29 -6z"/>
<path d="M15560 4585 c0 -8 5 -15 10 -15 6 0 10 7 10 15 0 8 -4 15 -10 15 -5
0 -10 -7 -10 -15z"/>
<path d="M15600 4574 c0 -8 5 -12 10 -9 6 3 10 10 10 16 0 5 -4 9 -10 9 -5 0
-10 -7 -10 -16z"/>
<path d="M15660 4581 c0 -6 5 -13 10 -16 6 -3 10 1 10 9 0 9 -4 16 -10 16 -5
0 -10 -4 -10 -9z"/>
<path d="M15588 4532 c-3 -10 1 -23 8 -29 18 -18 28 14 10 32 -12 12 -15 12
-18 -3z"/>
<path d="M15462 4442 c-8 -6 -2 -9 18 -9 20 0 26 3 18 9 -7 4 -15 8 -18 8 -3
0 -11 -4 -18 -8z"/>
<path d="M15615 4440 c-16 -7 -17 -9 -3 -9 9 -1 20 4 23 9 7 11 7 11 -20 0z"/>
<path d="M15360 4309 c0 -5 5 -7 10 -4 6 3 10 8 10 11 0 2 -4 4 -10 4 -5 0
-10 -5 -10 -11z"/>
<path d="M16170 4289 c0 -5 5 -7 10 -4 6 3 10 8 10 11 0 2 -4 4 -10 4 -5 0
-10 -5 -10 -11z"/>
<path d="M16015 4230 c3 -5 8 -10 11 -10 2 0 4 5 4 10 0 6 -5 10 -11 10 -5 0
-7 -4 -4 -10z"/>
<path d="M15363 4183 c0 -21 2 -31 5 -23 3 8 11 18 18 23 15 9 8 37 -10 37 -7
0 -12 -15 -13 -37z"/>
<path d="M15060 4197 c0 -17 20 -37 38 -37 12 0 12 3 2 15 -6 8 -9 19 -5 25 3
6 -3 10 -14 10 -12 0 -21 -6 -21 -13z"/>
<path d="M15280 4189 c0 -5 5 -7 10 -4 6 3 10 8 10 11 0 2 -4 4 -10 4 -5 0
-10 -5 -10 -11z"/>
<path d="M15120 4109 c0 -5 5 -7 10 -4 6 3 10 8 10 11 0 2 -4 4 -10 4 -5 0
-10 -5 -10 -11z"/>
<path d="M15050 4055 c-10 -13 -9 -15 9 -15 11 0 21 4 21 9 0 18 -18 21 -30 6z"/>
<path d="M15290 3970 c0 -5 6 -10 14 -10 8 0 18 5 21 10 3 6 -3 10 -14 10 -12
0 -21 -4 -21 -10z"/>
<path d="M11618 5403 c7 -3 16 -2 19 1 4 3 -2 6 -13 5 -11 0 -14 -3 -6 -6z"/>
<path d="M11495 5360 c-3 -5 1 -10 9 -10 9 0 16 5 16 10 0 6 -4 10 -9 10 -6 0
-13 -4 -16 -10z"/>
<path d="M11431 5284 c0 -11 3 -14 6 -6 3 7 2 16 -1 19 -3 4 -6 -2 -5 -13z"/>
<path d="M11620 5289 c0 -5 5 -7 10 -4 6 3 10 8 10 11 0 2 -4 4 -10 4 -5 0
-10 -5 -10 -11z"/>
<path d="M11840 5238 c0 -17 2 -18 15 -8 8 7 15 14 15 15 0 2 -7 5 -15 9 -10
4 -15 -1 -15 -16z"/>
<path d="M11620 5235 c0 -8 -4 -15 -10 -15 -5 0 -10 -7 -10 -15 0 -10 6 -8 23
8 23 21 25 37 6 37 -5 0 -9 -7 -9 -15z"/>
<path d="M11500 5230 c0 -5 5 -10 10 -10 6 0 10 5 10 10 0 6 -4 10 -10 10 -5
0 -10 -4 -10 -10z"/>
<path d="M11760 5195 l0 -45 38 1 c20 0 30 3 22 6 -29 11 -51 43 -45 63 4 11
2 20 -4 20 -6 0 -11 -20 -11 -45z"/>
<path d="M11710 5200 c0 -11 5 -20 10 -20 6 0 10 9 10 20 0 11 -4 20 -10 20
-5 0 -10 -9 -10 -20z"/>
<path d="M11262 5188 c-7 -7 -12 -16 -12 -21 0 -5 7 -1 16 8 9 9 14 18 12 20
-2 3 -10 -1 -16 -7z"/>
<path d="M11500 5170 c0 -5 -13 -10 -30 -10 -16 0 -30 -4 -30 -10 0 -5 18 -10
40 -10 33 0 40 3 40 20 0 11 -4 20 -10 20 -5 0 -10 -4 -10 -10z"/>
<path d="M10770 5160 l-25 -8 28 -1 c15 -1 27 4 27 9 0 6 -1 10 -2 9 -2 -1
-14 -5 -28 -9z"/>
<path d="M11189 5159 c-10 -6 -10 -9 -1 -9 6 0 12 -9 12 -21 0 -24 15 -17 23
10 6 22 -13 33 -34 20z"/>
<path d="M11868 5163 c6 -2 18 -2 25 0 6 3 1 5 -13 5 -14 0 -19 -2 -12 -5z"/>
<path d="M11720 5146 c0 -24 17 -28 23 -6 3 13 0 20 -9 20 -8 0 -14 -6 -14
-14z"/>
<path d="M10545 5130 c3 -5 8 -10 11 -10 2 0 4 5 4 10 0 6 -5 10 -11 10 -5 0
-7 -4 -4 -10z"/>
<path d="M10800 5130 c0 -5 5 -10 10 -10 6 0 10 5 10 10 0 6 -4 10 -10 10 -5
0 -10 -4 -10 -10z"/>
<path d="M11120 5105 c0 -8 5 -15 10 -15 6 0 10 7 10 15 0 8 -4 15 -10 15 -5
0 -10 -7 -10 -15z"/>
<path d="M10636 5063 c-6 -14 -5 -15 5 -6 7 7 10 15 7 18 -3 3 -9 -2 -12 -12z"/>
<path d="M10790 5057 c0 -14 -4 -29 -10 -32 -13 -8 -13 -25 0 -25 11 0 25 68
16 77 -3 4 -6 -5 -6 -20z"/>
<path d="M10960 5065 c0 -8 7 -15 15 -15 8 0 15 7 15 15 0 8 -7 15 -15 15 -8
0 -15 -7 -15 -15z"/>
<path d="M11155 5050 c-9 -15 4 -30 26 -30 12 0 19 7 19 20 0 21 -33 29 -45
10z"/>
<path d="M10550 5025 c-16 -20 -10 -26 18 -18 12 3 22 12 22 19 0 19 -24 18
-40 -1z"/>
<path d="M10240 5010 c0 -5 5 -10 10 -10 6 0 10 5 10 10 0 6 -4 10 -10 10 -5
0 -10 -4 -10 -10z"/>
<path d="M10418 5003 c12 -2 32 -2 45 0 12 2 2 4 -23 4 -25 0 -35 -2 -22 -4z"/>
<path d="M10240 4960 c0 -13 5 -18 15 -14 8 4 15 10 15 14 0 4 -7 10 -15 14
-10 4 -15 -1 -15 -14z"/>
<path d="M9830 4931 c0 -6 4 -13 10 -16 6 -3 7 1 4 9 -7 18 -14 21 -14 7z"/>
<path d="M9917 4926 c-4 -10 -1 -13 8 -9 8 3 12 9 9 14 -7 12 -11 11 -17 -5z"/>
<path d="M9985 4930 c-3 -5 -1 -10 4 -10 6 0 11 5 11 10 0 6 -2 10 -4 10 -3 0
-8 -4 -11 -10z"/>
<path d="M10138 4923 c7 -3 16 -2 19 1 4 3 -2 6 -13 5 -11 0 -14 -3 -6 -6z"/>
<path d="M10030 4880 c0 -22 5 -40 10 -40 6 0 10 18 10 40 0 22 -4 40 -10 40
-5 0 -10 -18 -10 -40z"/>
<path d="M10240 4892 c0 -17 4 -32 9 -32 19 0 22 20 7 42 -16 22 -16 22 -16
-10z"/>
<path d="M10400 4900 c0 -5 7 -10 16 -10 8 0 12 5 9 10 -3 6 -10 10 -16 10 -5
0 -9 -4 -9 -10z"/>
<path d="M9870 4880 c0 -5 5 -10 10 -10 6 0 10 5 10 10 0 6 -4 10 -10 10 -5 0
-10 -4 -10 -10z"/>
<path d="M9970 4875 c-7 -8 -21 -15 -31 -15 -10 0 -21 -4 -24 -10 -4 -6 7 -10
24 -10 17 0 31 5 31 10 0 6 7 10 15 10 8 0 15 7 15 15 0 8 -4 15 -9 15 -5 0
-14 -7 -21 -15z"/>
<path d="M9778 4843 c-52 -6 -48 -23 5 -23 58 0 93 10 75 21 -7 5 -20 8 -28 7
-8 -1 -32 -3 -52 -5z"/>
<path d="M10160 4830 c0 -5 7 -7 15 -4 8 4 15 8 15 10 0 2 -7 4 -15 4 -8 0
-15 -4 -15 -10z"/>
<path d="M9380 4804 c0 -8 5 -12 10 -9 6 3 10 10 10 16 0 5 -4 9 -10 9 -5 0
-10 -7 -10 -16z"/>
<path d="M9171 4744 c0 -11 3 -14 6 -6 3 7 2 16 -1 19 -3 4 -6 -2 -5 -13z"/>
<path d="M9695 4730 c-4 -7 -3 -16 3 -22 14 -14 47 -6 47 12 0 18 -40 26 -50
10z"/>
<path d="M9920 4660 c0 -5 5 -10 10 -10 6 0 10 5 10 10 0 6 -4 10 -10 10 -5 0
-10 -4 -10 -10z"/>
<path d="M9940 4630 c0 -5 9 -10 20 -10 11 0 20 5 20 10 0 6 -9 10 -20 10 -11
0 -20 -4 -20 -10z"/>
<path d="M9346 4615 c-3 -8 -1 -15 4 -15 6 0 10 7 10 15 0 8 -2 15 -4 15 -2 0
-6 -7 -10 -15z"/>
<path d="M9113 4589 c14 -8 22 -8 30 0 8 8 3 11 -18 11 -26 -1 -28 -2 -12 -11z"/>
<path d="M9143 4555 c-16 -11 -22 -12 -26 -2 -2 6 -8 9 -13 4 -4 -4 0 -15 10
-25 14 -12 20 -14 23 -4 3 6 18 12 34 12 31 0 39 14 13 24 -20 8 -16 8 -41 -9z"/>
<path d="M9018 4523 c7 -3 16 -2 19 1 4 3 -2 6 -13 5 -11 0 -14 -3 -6 -6z"/>
<path d="M8910 4490 c0 -5 5 -10 10 -10 6 0 10 5 10 10 0 6 -4 10 -10 10 -5 0
-10 -4 -10 -10z"/>
<path d="M9270 4480 c0 -17 7 -20 45 -20 38 0 45 3 45 20 0 17 -7 20 -45 20
-38 0 -45 -3 -45 -20z"/>
<path d="M8975 4450 c-3 -5 -1 -10 4 -10 6 0 11 5 11 10 0 6 -2 10 -4 10 -3 0
-8 -4 -11 -10z"/>
<path d="M8940 4410 c-13 -9 -13 -11 0 -20 15 -10 25 0 18 20 -2 6 -8 6 -18 0z"/>
<path d="M8710 4355 c0 -8 2 -15 4 -15 2 0 6 7 10 15 3 8 1 15 -4 15 -6 0 -10
-7 -10 -15z"/>
<path d="M8880 4350 c0 -5 4 -10 9 -10 6 0 13 5 16 10 3 6 -1 10 -9 10 -9 0
-16 -4 -16 -10z"/>
<path d="M8944 4345 c25 -19 36 -19 36 0 0 10 -10 15 -27 15 -27 -1 -27 -1 -9
-15z"/>
<path d="M8910 4320 c0 -5 5 -10 10 -10 6 0 10 5 10 10 0 6 -4 10 -10 10 -5 0
-10 -4 -10 -10z"/>
<path d="M8705 4290 c-3 -5 -1 -10 4 -10 6 0 11 5 11 10 0 6 -2 10 -4 10 -3 0
-8 -4 -11 -10z"/>
<path d="M8880 4290 c0 -5 6 -10 14 -10 8 0 17 -6 20 -12 5 -10 7 -10 12 0 3
6 12 12 20 12 8 0 14 5 14 10 0 14 -13 13 -28 -2 -9 -9 -15 -9 -24 0 -15 15
-28 16 -28 2z"/>
<path d="M8781 4211 c-9 -16 -8 -18 8 -14 12 3 17 11 14 19 -7 18 -10 18 -22
-5z"/>
<path d="M8746 3975 c-4 -10 1 -15 14 -15 13 0 18 5 14 15 -4 8 -10 15 -14 15
-4 0 -10 -7 -14 -15z"/>
<path d="M8820 3789 c0 -5 5 -7 10 -4 6 3 10 8 10 11 0 2 -4 4 -10 4 -5 0 -10
-5 -10 -11z"/>
<path d="M8845 3730 c-3 -5 -1 -10 4 -10 6 0 11 5 11 10 0 6 -2 10 -4 10 -3 0
-8 -4 -11 -10z"/>
<path d="M8880 3586 c0 -20 -5 -26 -22 -26 -19 -1 -18 -3 10 -15 17 -8 32 -19
32 -25 0 -5 5 -10 10 -10 6 0 10 7 10 15 0 8 7 15 15 15 8 0 15 5 15 10 0 14
-27 12 -33 -2 -4 -10 -7 -10 -18 0 -9 9 -10 12 -1 12 17 0 15 25 -3 40 -13 11
-15 8 -15 -14z"/>
<path d="M8800 3550 c0 -5 7 -7 15 -4 8 4 15 8 15 10 0 2 -7 4 -15 4 -8 0 -15
-4 -15 -10z"/>
<path d="M9022 3530 c-29 -39 -28 -50 8 -50 28 0 30 2 30 40 0 48 -9 50 -38
10z"/>
<path d="M9036 3434 c-9 -24 -2 -26 12 -4 7 11 8 20 3 20 -5 0 -12 -7 -15 -16z"/>
<path d="M9096 3421 c-3 -4 1 -17 9 -27 14 -18 14 -18 15 9 0 26 -13 36 -24
18z"/>
<path d="M9040 3389 c0 -5 5 -7 10 -4 6 3 10 8 10 11 0 2 -4 4 -10 4 -5 0 -10
-5 -10 -11z"/>
<path d="M9148 3388 c9 -9 15 -9 24 0 9 9 7 12 -12 12 -19 0 -21 -3 -12 -12z"/>
<path d="M9138 3313 c6 -2 18 -2 25 0 6 3 1 5 -13 5 -14 0 -19 -2 -12 -5z"/>
<path d="M9281 3193 c-27 -33 -20 -42 10 -14 13 12 26 21 31 21 4 0 8 5 8 10
0 19 -29 10 -49 -17z"/>
</g>
</svg>
